# xmcd
#
# Track frame offsets: 
#        150
#        10990
#        18534
#        28078
#        35446
#        53998
#        76646
#        89678
#        110998
#        129518
#        139398
#        147870
#        168310
#        174174
#        190022
#
# Disc length: 2717 seconds
#
# Revision: 0
# Processed by: cddbd v1.5.2PL0 Copyright (c) Steve Scherf et al.
# Submitted via: ExactAudioCopy v0.95a4
#
DISCID=c90a9b0f
DTITLE=Judy Coder - Frontier Songs
DYEAR=2003
DGENRE=Country
TTITLE0=The Old Chisholm Trail
TTITLE1=In Kansas
TTITLE2=Git Along, Little Dogies
TTITLE3=Katy Cruel
TTITLE4=Streets of Laredo
TTITLE5=Housewife's Lament
TTITLE6=Corrido de Kansas
TTITLE7=Sweet Betsy from Pike
TTITLE8=Red River Valley
TTITLE9=The Wild River
TTITLE10=Rye Whiskey
TTITLE11=The Cowboy's Dream
TTITLE12=Kansas Boys
TTITLE13=Roll, Jordan, Roll
TTITLE14=Goodbye, Old Paint
EXTD=
EXTT0=
EXTT1=
EXTT2=
EXTT3=
EXTT4=
EXTT5=
EXTT6=
EXTT7=
EXTT8=
EXTT9=
EXTT10=
EXTT11=
EXTT12=
EXTT13=
EXTT14=
PLAYORDER=
